<?xml version="1.0" encoding="UTF-8"?>
<!DOCTYPE svg PUBLIC "-//W3C//DTD SVG 1.1//EN" "http://www.w3.org/Graphics/SVG/1.1/DTD/svg11.dtd">
<!-- Creator: CorelDRAW -->
<svg xmlns="http://www.w3.org/2000/svg" xml:space="preserve" width="1.70666in" height="1.70666in" version="1.1" style="shape-rendering:geometricPrecision; text-rendering:geometricPrecision; image-rendering:optimizeQuality; fill-rule:evenodd; clip-rule:evenodd"
viewBox="0 0 1707 1707"
 xmlns:xlink="http://www.w3.org/1999/xlink">
 <defs>
  <style type="text/css">
   <![CDATA[
    .fil0 {fill:black}
   ]]>
  </style>
 </defs>
 <g id="Layer_x0020_1">
  <metadata id="CorelCorpID_0Corel-Layer"/>
  <path class="fil0" d="M982 1477c-15,0 -29,-8 -36,-22l-51 -102c-50,0 -99,0 -127,0l-52 102c-24,47 -95,11 -71,-36 18,-36 147,-297 158,-307 20,-19 52,-13 64,11l151 296c13,27 -7,58 -36,58zm685 163l-1162 0c-22,0 -40,-18 -40,-40l0 -1493c0,-22 18,-40 40,-40l1162 0c22,0 40,18 40,40l0 1493c0,22 -18,40 -40,40zm-1122 -80l1082 0 0 -1413 -1082 0 0 1413zm744 -1180l-407 0c-52,0 -52,-80 0,-80l407 0c53,0 53,80 0,80zm202 205l-811 0c-52,0 -52,-80 0,-80l811 0c53,0 53,80 0,80zm0 208l-811 0c-52,0 -52,-80 0,-80l811 0c53,0 53,80 0,80zm0 208l-811 0c-52,0 -52,-80 0,-80l811 0c53,0 53,80 0,80zm-413 323c-22,0 -40,-18 -40,-40l0 -32 -31 0c-53,0 -53,-80 0,-80l31 0 0 -31c0,-53 80,-53 80,0l0 31 32 0c53,0 53,80 0,80l-32 0 0 32c0,22 -17,40 -40,40zm-224 -51l-23 -44 -22 44c14,0 30,0 45,0zm-850 32c-3,-6 -4,-12 -4,-18l0 -1180c0,-22 18,-40 40,-40l281 0c22,0 40,18 40,40l0 1180c0,7 -2,12 -4,18l-142 311c-14,32 -59,31 -73,0l-138 -311zm277 -58l0 -877 -201 0 0 877 201 0zm-179 80l77 175 80 -175 -157 0zm-22 -1037l201 0 0 -143 -201 0 0 143z"/>
 </g>
</svg>
