<?xml version="1.0" encoding="UTF-8"?>
<!DOCTYPE svg PUBLIC "-//W3C//DTD SVG 1.1//EN" "http://www.w3.org/Graphics/SVG/1.1/DTD/svg11.dtd">
<!-- Creator: CorelDRAW -->
<svg xmlns="http://www.w3.org/2000/svg" xml:space="preserve" width="1.70666in" height="1.70666in" version="1.1" style="shape-rendering:geometricPrecision; text-rendering:geometricPrecision; image-rendering:optimizeQuality; fill-rule:evenodd; clip-rule:evenodd"
viewBox="0 0 1707 1707"
 xmlns:xlink="http://www.w3.org/1999/xlink">
 <defs>
  <style type="text/css">
   <![CDATA[
    .fil0 {fill:black}
   ]]>
  </style>
 </defs>
 <g id="Layer_x0020_1">
  <metadata id="CorelCorpID_0Corel-Layer"/>
  <g id="_513115216">
   <g>
    <g>
     <g>
      <path class="fil0" d="M643 282c-51,0 -93,-41 -93,-93 0,-51 42,-93 93,-93 52,0 93,42 93,93 0,52 -41,93 -93,93zm0 -139c-25,0 -44,20 -44,45 0,25 19,44 44,44 25,0 45,-19 45,-44 0,-25 -20,-45 -45,-45z"/>
     </g>
     <g>
      <path class="fil0" d="M1330 282l-59 0c-14,0 -25,-11 -25,-25l0 -137c0,-14 11,-25 25,-25 14,0 25,11 25,25l0 114 34 0c13,0 25,11 25,25 0,13 -12,23 -25,23z"/>
     </g>
     <g>
      <path class="fil0" d="M489 209l-106 0c-14,0 -25,-11 -25,-25 0,-14 11,-25 25,-25l106 0c14,0 25,11 25,25 0,14 -11,25 -25,25z"/>
     </g>
     <g>
      <path class="fil0" d="M377 292c-14,0 -25,-11 -25,-25l0 -157c0,-14 11,-25 25,-25 14,0 25,11 25,25l0 158c-1,13 -12,24 -25,24z"/>
     </g>
     <g>
      <path class="fil0" d="M489 292c-13,0 -25,-11 -25,-25l0 -157c0,-14 12,-25 25,-25 14,0 25,11 25,25l0 158c0,13 -11,24 -25,24z"/>
     </g>
     <g>
      <path class="fil0" d="M1173 148l-64 0c-14,0 -25,-11 -25,-25 0,-14 11,-24 25,-24l64 0c14,0 25,11 25,25 0,14 -11,24 -25,24z"/>
     </g>
     <g>
      <path class="fil0" d="M1173 278l-64 0c-14,0 -25,-11 -25,-25 0,-14 11,-25 25,-25l64 0c14,0 25,11 25,25 0,14 -11,25 -25,25z"/>
     </g>
     <g>
      <path class="fil0" d="M1109 278c-14,0 -25,-11 -25,-25l0 -129c0,-14 11,-25 25,-25 14,0 25,11 25,25l0 130c0,13 -11,24 -25,24z"/>
     </g>
     <g>
      <path class="fil0" d="M1173 213l-64 0c-14,0 -25,-11 -25,-25 0,-14 11,-25 25,-25l64 0c14,0 25,11 25,25 0,14 -11,25 -25,25z"/>
     </g>
     <g>
      <path class="fil0" d="M983 282c-14,0 -25,-11 -25,-25l0 -137c0,-14 11,-25 25,-25l58 0c14,0 25,11 25,25 0,14 -11,25 -25,25l-33 0 0 114c-1,12 -13,23 -25,23z"/>
     </g>
     <g>
      <path class="fil0" d="M983 282c-14,0 -25,-11 -25,-25l0 -114 -33 0c-14,0 -25,-11 -25,-24 0,-14 11,-25 25,-25l58 0c14,0 25,11 25,25l0 137c-1,15 -13,26 -25,26z"/>
     </g>
     <g>
      <path class="fil0" d="M851 213l-65 0c-22,0 -39,-17 -39,-39l0 -42c0,-20 18,-38 39,-38l65 0c21,0 39,18 39,38 0,14 -11,25 -25,25 -10,0 -18,-5 -22,-14l-47 0 0 21 55 0c14,0 25,11 25,25 0,14 -11,24 -25,24z"/>
     </g>
     <g>
      <path class="fil0" d="M851 282l-65 0c-21,0 -39,-18 -39,-39 0,-14 11,-23 25,-23 10,0 18,5 22,14l48 0 0 -21 -55 0c-13,0 -24,-11 -24,-25 0,-14 11,-25 24,-25l66 0c20,0 38,17 38,39l0 41c-1,21 -19,39 -40,39zm-55 -39l0 0 0 0z"/>
     </g>
    </g>
    <g>
     <path class="fil0" d="M853 523c-14,0 -25,-11 -25,-25l0 -145c0,-14 11,-25 25,-25 14,0 25,11 25,25l0 147c0,12 -11,23 -25,23z"/>
    </g>
    <g>
     <path class="fil0" d="M1457 376l-1207 0c-14,0 -25,-11 -25,-25l0 -325c0,-14 11,-25 25,-25l1207 0c14,0 25,11 25,25l0 327c0,12 -11,23 -25,23zm-1184 -48l1161 0 0 -279 -1161 0 0 279z"/>
    </g>
    <g>
     <path class="fil0" d="M1392 1706l-1079 0c-14,0 -25,-11 -25,-25l0 -1183c0,-13 11,-25 25,-25l1078 0c13,0 25,12 25,25l0 1183c0,14 -12,25 -24,25zm-1054 -49l1029 0 0 -1134 -1029 0 0 1134z"/>
    </g>
    <g>
     <path class="fil0" d="M1122 1526l-181 0c-13,0 -25,-11 -25,-25l0 -180c0,-14 12,-25 25,-25l181 0c13,0 25,11 25,25l0 180c-2,14 -13,25 -25,25zm-157 -49l132 0 0 -131 -132 0 0 131z"/>
    </g>
    <g>
     <path class="fil0" d="M765 1706c-14,0 -25,-11 -25,-25l0 -270c0,-36 -30,-67 -65,-67 -36,0 -66,31 -66,67l0 270c0,14 -11,25 -25,25 -14,0 -25,-11 -25,-25l0 -270c0,-64 51,-115 115,-115 62,0 113,51 113,115l0 270c3,14 -8,25 -22,25z"/>
    </g>
    <g>
     <path class="fil0" d="M1122 1214l-181 0c-13,0 -25,-11 -25,-25l0 -180c0,-14 12,-25 25,-25l181 0c13,0 25,11 25,25l0 180c-2,14 -13,25 -25,25zm-157 -49l132 0 0 -131 -132 0 0 131z"/>
    </g>
    <g>
     <path class="fil0" d="M765 1214l-180 0c-14,0 -25,-11 -25,-25l0 -180c0,-14 11,-25 25,-25l180 0c14,0 25,11 25,25l0 180c0,14 -11,25 -25,25zm-155 -49l132 0 0 -131 -132 0 0 131z"/>
    </g>
    <g>
     <path class="fil0" d="M1122 902l-181 0c-13,0 -25,-11 -25,-25l0 -180c0,-14 12,-25 25,-25l181 0c13,0 25,11 25,25l0 180c-2,14 -13,25 -25,25zm-157 -49l132 0 0 -131 -132 0 0 131z"/>
    </g>
    <g>
     <path class="fil0" d="M765 902l-180 0c-14,0 -25,-11 -25,-25l0 -180c0,-14 11,-25 25,-25l180 0c14,0 25,11 25,25l0 180c0,14 -11,25 -25,25zm-155 -49l132 0 0 -131 -132 0 0 131z"/>
    </g>
   </g>
  </g>
 </g>
</svg>
